# xmcd
#
# Track frame offsets:
#	150
#	12262
#	27937
#	48150
#	60412
#	74812
#	97050
#	117262
#	134775
#	151087
#	165712
#	186675
#	205200
#
# Disc length: 2888 seconds
# Revision: 2
# Processed by: cddbd v1.5.2PL0 Copyright (c) Steve Scherf et al.
# Submitted via: dBpowerAMP V12.0
#
DISCID=be0b460d
DTITLE=Various Artist - Fiddle Patch
DYEAR=1998
DGENRE=Bluegrass
TTITLE0=BobbyHicks,Newton,NC - Katy Hill
TTITLE1=Bobby Hicks and Del McCoury - We're Steppin' Out Tonight
TTITLE2=BobbyHicks,Newton,NC - Gardenia Waltz
TTITLE3=BobbyHicks,Newton,NC - Twinkle Little Star
TTITLE4=BobbyHicks,Newton,NC - Comanche Hit and Run
TTITLE5=BobbyHicks,Newton,NC - Faded Love
TTITLE6=Bobby Hicks and Del McCoury - Oh, What a Silent Night
TTITLE7=BobbyHicks,Newton,NC - Prosperity Special
TTITLE8=BobbyHicks,Newton,NC - Angel's Waltz
TTITLE9=BobbyHicks,Newton,NC - Whiskey Before Breakfast
TTITLE10=BobbyHicks,Newton,NC - Estrellita
TTITLE11=BobbyHicks,Newton,NC - Lily Dale
TTITLE12=BobbyHicks,Newton,NC - Fiddle Patch
EXTD=
EXTT0=
EXTT1=
EXTT2=
EXTT3=
EXTT4=
EXTT5=
EXTT6=
EXTT7=
EXTT8=
EXTT9=
EXTT10=
EXTT11=
EXTT12=
PLAYORDER=
